<svg width="379" height="50" viewBox="0 0 379 50" fill="none" xmlns="http://www.w3.org/2000/svg">
<path d="M0 6C0 2.68629 2.68629 0 6 0H373C376.314 0 379 2.68629 379 6V44C379 47.3137 376.314 50 373 50H5.99999C2.68628 50 0 47.3137 0 44V6Z" fill="#0073CF"/>
<path d="M134.62 32V18.9091H136.992V30.0121H142.757V32H134.62ZM148.996 32.1918C148.037 32.1918 147.206 31.9808 146.503 31.5589C145.8 31.1371 145.255 30.5469 144.867 29.7884C144.483 29.0298 144.291 28.1435 144.291 27.1293C144.291 26.1151 144.483 25.2266 144.867 24.4638C145.255 23.701 145.8 23.1087 146.503 22.6868C147.206 22.2649 148.037 22.054 148.996 22.054C149.955 22.054 150.786 22.2649 151.489 22.6868C152.192 23.1087 152.735 23.701 153.119 24.4638C153.507 25.2266 153.701 26.1151 153.701 27.1293C153.701 28.1435 153.507 29.0298 153.119 29.7884C152.735 30.5469 152.192 31.1371 151.489 31.5589C150.786 31.9808 149.955 32.1918 148.996 32.1918ZM149.009 30.3381C149.529 30.3381 149.963 30.1953 150.313 29.9098C150.662 29.62 150.922 29.2322 151.093 28.7464C151.267 28.2607 151.355 27.7195 151.355 27.1229C151.355 26.522 151.267 25.9787 151.093 25.4929C150.922 25.0028 150.662 24.6129 150.313 24.3232C149.963 24.0334 149.529 23.8885 149.009 23.8885C148.476 23.8885 148.033 24.0334 147.679 24.3232C147.33 24.6129 147.068 25.0028 146.893 25.4929C146.723 25.9787 146.637 26.522 146.637 27.1229C146.637 27.7195 146.723 28.2607 146.893 28.7464C147.068 29.2322 147.33 29.62 147.679 29.9098C148.033 30.1953 148.476 30.3381 149.009 30.3381ZM155.665 32V22.1818H157.908V23.8182H158.01C158.189 23.2514 158.496 22.8146 158.931 22.5078C159.37 22.1967 159.87 22.0412 160.433 22.0412C160.561 22.0412 160.704 22.0476 160.861 22.0604C161.023 22.0689 161.157 22.0838 161.264 22.1051V24.2337C161.166 24.1996 161.01 24.1697 160.797 24.1442C160.589 24.1143 160.386 24.0994 160.19 24.0994C159.768 24.0994 159.389 24.1911 159.052 24.3743C158.72 24.5533 158.458 24.8026 158.266 25.1222C158.074 25.4418 157.978 25.8104 157.978 26.228V32H155.665ZM166.744 32.1918C165.759 32.1918 164.909 31.9872 164.193 31.5781C163.481 31.1648 162.934 30.581 162.55 29.8267C162.167 29.0682 161.975 28.1754 161.975 27.1484C161.975 26.1385 162.167 25.2521 162.55 24.4893C162.938 23.7223 163.479 23.1257 164.174 22.6996C164.869 22.2692 165.685 22.054 166.622 22.054C167.227 22.054 167.798 22.152 168.335 22.348C168.876 22.5398 169.354 22.8381 169.767 23.2429C170.185 23.6477 170.513 24.1634 170.751 24.7898C170.99 25.4119 171.109 26.1534 171.109 27.0142V27.7237H163.062V26.1641H168.891C168.887 25.7209 168.791 25.3267 168.604 24.9815C168.416 24.6321 168.154 24.3572 167.817 24.157C167.485 23.9567 167.097 23.8565 166.654 23.8565C166.181 23.8565 165.766 23.9716 165.408 24.2017C165.05 24.4276 164.771 24.7259 164.57 25.0966C164.374 25.4631 164.274 25.8658 164.27 26.3047V27.6662C164.27 28.2372 164.374 28.7273 164.583 29.1364C164.792 29.5412 165.084 29.8523 165.459 30.0696C165.834 30.2827 166.273 30.3892 166.775 30.3892C167.112 30.3892 167.417 30.3423 167.69 30.2486C167.962 30.1506 168.199 30.0078 168.399 29.8203C168.599 29.6328 168.751 29.4006 168.853 29.1236L171.013 29.3665C170.877 29.9375 170.617 30.4361 170.234 30.8622C169.854 31.2841 169.369 31.6122 168.776 31.8466C168.184 32.0767 167.506 32.1918 166.744 32.1918ZM173.067 32V22.1818H175.278V23.8501H175.394C175.598 23.2876 175.937 22.8487 176.41 22.5334C176.883 22.2138 177.448 22.054 178.104 22.054C178.769 22.054 179.329 22.2159 179.785 22.5398C180.245 22.8594 180.569 23.2962 180.756 23.8501H180.859C181.076 23.3047 181.443 22.87 181.958 22.5462C182.478 22.218 183.094 22.054 183.805 22.054C184.709 22.054 185.446 22.3395 186.017 22.9105C186.588 23.4815 186.874 24.3146 186.874 25.4098V32H184.553V25.7678C184.553 25.1584 184.391 24.7131 184.068 24.4318C183.744 24.1463 183.347 24.0036 182.879 24.0036C182.32 24.0036 181.884 24.1783 181.568 24.5277C181.257 24.8729 181.102 25.3224 181.102 25.8764V32H178.832V25.6719C178.832 25.1648 178.679 24.7599 178.372 24.4574C178.07 24.1548 177.673 24.0036 177.183 24.0036C176.851 24.0036 176.548 24.0888 176.276 24.2592C176.003 24.4254 175.786 24.6619 175.624 24.9688C175.462 25.2713 175.381 25.625 175.381 26.0298V32H173.067ZM196.16 18.9091V32H193.788V18.9091H196.16ZM198.625 35.6818V22.1818H200.901V23.8054H201.035C201.155 23.5668 201.323 23.3132 201.54 23.0447C201.758 22.772 202.052 22.5398 202.422 22.348C202.793 22.152 203.266 22.054 203.841 22.054C204.6 22.054 205.284 22.2479 205.893 22.6357C206.507 23.0192 206.993 23.5881 207.351 24.3423C207.713 25.0923 207.894 26.0128 207.894 27.1037C207.894 28.1818 207.717 29.098 207.363 29.8523C207.01 30.6065 206.528 31.1818 205.919 31.5781C205.309 31.9744 204.619 32.1726 203.848 32.1726C203.285 32.1726 202.819 32.0788 202.448 31.8913C202.077 31.7038 201.779 31.478 201.553 31.2138C201.331 30.9453 201.159 30.6918 201.035 30.4531H200.939V35.6818H198.625ZM200.895 27.0909C200.895 27.7259 200.984 28.282 201.163 28.7592C201.346 29.2365 201.608 29.6094 201.949 29.8778C202.294 30.142 202.712 30.2741 203.202 30.2741C203.714 30.2741 204.142 30.1378 204.487 29.8651C204.832 29.5881 205.092 29.2109 205.267 28.7337C205.446 28.2521 205.535 27.7045 205.535 27.0909C205.535 26.4815 205.448 25.9403 205.273 25.4673C205.098 24.9943 204.839 24.6236 204.493 24.3551C204.148 24.0866 203.718 23.9524 203.202 23.9524C202.708 23.9524 202.288 24.0824 201.943 24.3423C201.598 24.6023 201.336 24.9666 201.157 25.4354C200.982 25.9041 200.895 26.456 200.895 27.0909ZM217.635 24.777L215.526 25.0071C215.466 24.794 215.362 24.5938 215.213 24.4062C215.068 24.2188 214.872 24.0675 214.625 23.9524C214.378 23.8374 214.075 23.7798 213.717 23.7798C213.236 23.7798 212.831 23.8842 212.503 24.093C212.179 24.3018 212.019 24.5724 212.023 24.9048C212.019 25.1903 212.123 25.4226 212.336 25.6016C212.554 25.7805 212.912 25.9276 213.41 26.0426L215.085 26.4006C216.014 26.6009 216.704 26.9183 217.156 27.353C217.612 27.7876 217.842 28.3565 217.846 29.0597C217.842 29.6776 217.661 30.223 217.303 30.696C216.949 31.1648 216.457 31.5312 215.826 31.7955C215.196 32.0597 214.471 32.1918 213.653 32.1918C212.451 32.1918 211.484 31.9403 210.751 31.4375C210.018 30.9304 209.581 30.2251 209.441 29.3217L211.697 29.1044C211.799 29.5476 212.017 29.8821 212.349 30.108C212.682 30.3338 213.114 30.4467 213.647 30.4467C214.196 30.4467 214.638 30.3338 214.97 30.108C215.307 29.8821 215.475 29.603 215.475 29.2706C215.475 28.9893 215.366 28.7571 215.149 28.5739C214.936 28.3906 214.603 28.25 214.152 28.152L212.477 27.8004C211.535 27.6044 210.839 27.2741 210.387 26.8097C209.935 26.3409 209.711 25.7486 209.716 25.0327C209.711 24.4276 209.875 23.9034 210.208 23.4602C210.544 23.0128 211.011 22.6676 211.608 22.4247C212.209 22.1776 212.901 22.054 213.685 22.054C214.836 22.054 215.741 22.299 216.402 22.7891C217.066 23.2791 217.478 23.9418 217.635 24.777ZM226.012 27.8707V22.1818H228.326V32H226.082V30.255H225.98C225.759 30.8047 225.394 31.2543 224.887 31.6037C224.384 31.9531 223.764 32.1278 223.027 32.1278C222.384 32.1278 221.815 31.9851 221.32 31.6996C220.83 31.4098 220.447 30.9901 220.17 30.4403C219.893 29.8864 219.754 29.2173 219.754 28.4332V22.1818H222.068V28.0753C222.068 28.6974 222.239 29.1918 222.58 29.5582C222.921 29.9247 223.368 30.108 223.922 30.108C224.263 30.108 224.593 30.0249 224.913 29.8587C225.232 29.6925 225.494 29.4453 225.699 29.1172C225.908 28.7848 226.012 28.3693 226.012 27.8707ZM230.706 32V22.1818H232.917V23.8501H233.032C233.237 23.2876 233.576 22.8487 234.049 22.5334C234.522 22.2138 235.086 22.054 235.742 22.054C236.407 22.054 236.968 22.2159 237.424 22.5398C237.884 22.8594 238.208 23.2962 238.395 23.8501H238.497C238.715 23.3047 239.081 22.87 239.597 22.5462C240.117 22.218 240.733 22.054 241.444 22.054C242.348 22.054 243.085 22.3395 243.656 22.9105C244.227 23.4815 244.512 24.3146 244.512 25.4098V32H242.192V25.7678C242.192 25.1584 242.03 24.7131 241.706 24.4318C241.382 24.1463 240.986 24.0036 240.517 24.0036C239.959 24.0036 239.522 24.1783 239.207 24.5277C238.896 24.8729 238.74 25.3224 238.74 25.8764V32H236.471V25.6719C236.471 25.1648 236.318 24.7599 236.011 24.4574C235.708 24.1548 235.312 24.0036 234.822 24.0036C234.49 24.0036 234.187 24.0888 233.914 24.2592C233.642 24.4254 233.424 24.6619 233.262 24.9688C233.1 25.2713 233.019 25.625 233.019 26.0298V32H230.706Z" fill="white"/>
</svg>
